<?xml version="1.0" encoding="UTF-8"?>
<svg id="_Шар_1" data-name="Шар 1" xmlns="http://www.w3.org/2000/svg" viewBox="0 0 281.95 376.83">
  <defs>
    <style>
      .cls-1, .cls-2, .cls-3, .cls-4, .cls-5, .cls-6, .cls-7 {
        stroke: #000;
      }

      .cls-1, .cls-2, .cls-5, .cls-6 {
        fill: none;
      }

      .cls-1, .cls-3, .cls-5, .cls-6, .cls-7 {
        stroke-miterlimit: 10;
      }

      .cls-1, .cls-4, .cls-5, .cls-7 {
        stroke-width: 4px;
      }

      .cls-2 {
        stroke-width: 5px;
      }

      .cls-2, .cls-4 {
        stroke-linejoin: round;
      }

      .cls-2, .cls-4, .cls-5 {
        stroke-linecap: round;
      }

      .cls-8, .cls-9 {
        stroke-width: 0px;
      }

      .cls-3, .cls-6 {
        stroke-width: 3px;
      }

      .cls-4, .cls-9, .cls-7 {
        fill: #fff;
      }
    </style>
  </defs>
  <path class="cls-4" d="m68.27,237.92s0-.03-.02-.04c-.81-.33-19.11-8-10.07-29.14,4.39-10.27,2.97-21.39.25-30.26-2.64-8.65-6.51-15.14-7.38-16.54h0c-3.96-11.3-6.09-23.45-6.09-36.08,0-14.79,2.94-28.9,8.28-41.77,0-.01,0-.02,0-.03-5.34-12.74-8.28-26.73-8.28-41.41s2.81-28.02,7.91-40.52c0-.02.03-.03.05-.03,22.98.85,44.11,8.92,61.19,22.02.01,0,.03.01.04,0,12.43-4.91,25.96-7.61,40.14-7.61,10.99,0,21.61,1.62,31.62,4.65.01,0,.03,0,.04,0,17.36-12.08,38.47-19.16,61.23-19.16h1.83c1.86,0,3.5,1.21,4.06,2.99l.54,1.72c3.99,11.24,6.16,23.33,6.16,35.93s-2.28,25.31-6.46,36.78c-2.07,5.7-4.62,11.16-7.58,16.35.35,0,.69,0,1.04,0h8.23c2.65,0,4.97,1.8,5.59,4.37,1.99,8.25,3.05,16.86,3.05,25.72,0,7.7-.79,15.2-2.32,22.44,0,.04.04.07.07.04"/>
  <path class="cls-9" d="m245.12,159.78c-4.9-3.93-10.43-4.32-16.32-2.28-4.96,1.72-12.15,4.73-12.07,10.99.07,5.55,5.51,8.11,10.37,8.33,7.95.36,16.42-1.29,24.35-1.98l-2.52-9.32c-6.77,5.09-14.09,8.39-22.39,10.05l2.66,9.64c5.73-1.49,10.69-4.51,14.48-9.07,3.18-3.82.22-9.45-4.86-8.36-10.88,2.34-21.85,3.5-32.98,3.54,1.44,2.51,2.88,5.02,4.32,7.52,2.44-3.55,5.83-6.3,9.83-7.95,1.83-.76,3.78-1.28,5.75-1.52.98-.12,2,0,2.96-.13.45,0,.9.01,1.35.07,1.11.25.98-.2-.41-1.36-.96.21-3.64,3.88-4.57,4.69-1.73,1.5-3.55,2.88-5.45,4.15-4.17,2.79-8.62,5.03-13.33,6.74,1.88,2.45,3.76,4.9,5.65,7.34,5.17-8.01,13.97-12.27,23.42-11.85l-4.32-7.52c-3.69,6.07-8.45,11.11-14.36,15.05-4.1,2.73-2.57,9.15,2.52,9.32,9.95.32,19.74-1.4,28.94-5.22-1.62-2.79-3.24-5.57-4.86-8.36-4.24,4.36-8.49,8.73-12.73,13.09h7.07c-1.85-2.21-3.27-4.75-4.05-7.53-.25-.79-.42-1.59-.49-2.42-.15-1.07-.15-1.15,0-.24.98.12,1.9,1.41,2.37,2.13,2.71,4.14-.81,9.6-5.74,8.84l3.49,3.49c-.3-1.74,3.65-2.56,2.15.36-.77,1.5-4.34,1.77-5.7,3.37-4.5,5.33,1.96,11.95,7.68,8.74,1.75-.98,3.09-3.65,2.3-5.65-1.87-4.69-6.73-5.37-10.88-3.08-3.47,1.92-3.18,8.5,1.19,9.14,3.02.44,5.57.47,8.45-.72,5.8-2.4,3.79-11.12-2.66-9.64-3.56.82-7.68,2.52-11.31,2.6-1.19.03-1.29,1.17-.9-1.28.2-1.23.73-2.4,1.28-3.5,2.29-4.58-2.29-9.06-6.84-6.84-5.91,2.88-11,6.91-15.14,12.02-1.8,2.23-2.21,6.41,1.01,7.85,8.96,4.02,21.9,2.04,22.91-9.82.98-11.44-11.17-13.88-19.79-11.23-5.62,1.73-10.96,4.44-16.53,6.38-6.03,2.11-12.17,3.92-18.37,5.42-13.21,3.19-26.64,4.88-40.22,5.22l4.32,7.52c2.66-4.91,6.63-8.19,12.01-9.71-1.28-3.05-2.57-6.09-3.85-9.14-20.31,12.97-42.79,21.61-66.54,25.67-5.66.97-4.17,9.8,1.33,9.82,22.14.08,44.17-2.78,65.55-8.5l-6.15-6.15,1.8-1.13c-6.19-1.81-8.83,7.84-2.66,9.64,4.8,1.4,9.09-1.15,10.5-5.86,1.11-3.7-2.54-7.12-6.15-6.15-20.57,5.5-41.61,8.22-62.89,8.15l1.33,9.82c24.52-4.19,47.96-13.29,68.93-26.68,4.67-2.98,1.76-10.73-3.85-9.14-7.77,2.2-14.14,7.2-17.99,14.31-1.75,3.24.41,7.62,4.32,7.52,17.48-.44,34.91-3.03,51.7-7.93,8.05-2.35,15.71-5.52,23.52-8.54,2.01-.78,6.71-2.96,8.85-1.62,1.65,1.04.77,2.87-.62,3.81-1.81,1.24-4.61.46-6.4-.34l1.01,7.85c3.66-4.52,7.88-7.9,13.11-10.46l-6.84-6.84c-2.55,5.11-4.66,12.46-.17,17.21,5.55,5.86,15.94,1.14,22.39-.34l-2.66-9.64c-.97.56-2.01.8-3.13.72.4,3.05.8,6.09,1.19,9.14l-.49.17-3.49-3.49.17.43,2.3-5.65,3.46-.06,2.3,2.99-.12-.58-.5,3.85c-1.07,1.7.06.55,1.13.16s2.12-1.01,3.02-1.8c1.6-1.4,2.82-3.34,3.42-5.38,1.22-4.17.3-9.06-2.95-12.08-8.4-7.81-20.16,2-18.48,11.72.26,1.53,1.95,3.25,3.49,3.49,15.31,2.37,26.3-15.61,14.22-27.02-4.95-4.68-14.37-5.53-17.44,1.67-3.12,7.3,2.14,16.54,6.72,22.01,1.72,2.05,5.32,1.81,7.07,0,4.24-4.36,8.49-8.73,12.73-13.09,3.2-3.29,0-10.38-4.86-8.36-8.48,3.52-17.1,5.16-26.28,4.87l2.52,9.32c7.34-4.89,13.37-11.09,17.95-18.64,2.05-3.37-.63-7.36-4.32-7.52-13.01-.58-25.04,5.92-32.06,16.8-2.27,3.52,1.54,8.84,5.65,7.34,8.03-2.91,15.36-6.96,21.95-12.41,4.8-3.97,12.34-11.11,7.38-17.8-3.97-5.35-13.24-4.1-18.81-2.46-7.47,2.2-13.56,6.93-17.94,13.3-2.19,3.19.73,7.54,4.32,7.52,12-.05,23.91-1.37,35.64-3.9-1.62-2.79-3.24-5.57-4.86-8.36-2.77,3.32-5.87,5.41-10.07,6.5-6.28,1.63-3.6,10.89,2.66,9.64,9.02-1.8,17.43-5.54,24.78-11.06,3.49-2.62,2.99-9.8-2.52-9.32-7.63.66-15.61,2.09-23.26,1.99-1.78-.02-2.29-.93-2.03,1.31.31,2.59,1.4.75,3.14-.07,2.18-1.03,6.47-3.04,8.75-1.22,4.97,3.99,12.09-3.04,7.07-7.07h0Z"/>
  <path class="cls-5" d="m67.81,237.6s140.78-16.93,165.94-23.71"/>
  <path class="cls-1" d="m52.52,162.62c79.05,8.71,208.8-14.03,208.8-14.03,0,0,19.81,1.51,10.63,23.25-9.18,21.74-2.23,32.5-24.09,38.73-21.86,6.23-18.52,3.58-18.52,3.58"/>
  <path class="cls-7" d="m130.42,163.59s2.7-21.16,38.5-3.81c0,0,8.71,2.84,34.83-10.71,0,0,19.72-3.75,18.57,21.34-1.15,25.1-40.47,87.91,57.56,131.49,0,0,5.97,30.27-93.13,34.02,0,0-58.47-46.56-42.99-111.39,0,0,7.93-50.55-13.55-61.92"/>
  <path class="cls-6" d="m89.14,164.71s-11.27,39.37,2.08,68.23"/>
  <line class="cls-6" x1="118.95" y1="164.71" x2="124" y2="228.45"/>
  <line class="cls-6" x1="144.9" y1="214.15" x2="214.94" y2="206.99"/>
  <path class="cls-6" d="m222.36,170.21c-2.19,3.24-84.89.63-84.89.63"/>
  <line class="cls-6" x1="158.16" y1="303.48" x2="239.22" y2="277.76"/>
  <path class="cls-6" d="m141.71,257.59s71.93-7.8,75.45-11.96"/>
  <path class="cls-3" d="m122.95,228.78l-5.06-63.74h-29.8s-11.27,39.37,2.08,68.23"/>
  <path class="cls-8" d="m143.29,179.33c15.47,2.3,31.78,1.49,47.38,1.44,6.43-.02,6.45-10.02,0-10-7.61.02-15.23-.03-22.84-.17-7.22-.14-14.73.16-21.88-.91-6.3-.94-9.01,8.7-2.66,9.64h0Z"/>
  <path class="cls-8" d="m143.52,181.85c1.42.92.56,10.25.69,12.06.32,4.56.74,9.14-.07,13.67-.44,2.46.64,5.64,3.49,6.15,11.33,2.02,21.53-2.64,32.54-4.09,5.24-.69,10.67-.37,15.96-.95s12.38-.17,17.39-2.06c2.17-.82,3.56-2.45,3.67-4.82.26-5.57-4.52-12.17-8-16.16-3.67-4.21-9.22-8.77-14.83-9.93-6.16-1.27-10.41,4.19-10.3,9.99.14,6.91,5.77,10.7,11.83,12.33,1.15.31,3.61,1.21,4.81.87l.88.11.21-3.94c-.24-.54-2.29-1.9-2.65-2.29-.59-.63-2.25-4.08-2.88-4.28-2.15-.67-2.23,3.76-3.3,4.4-2.52,1.5-2.8-.8-3.15-2.32-.37-1.62,1.14-.57-.33-1.88s-.62,1.05-.65,1.64c-.26,6.23-5.07.89-5.82-2.2-.45-1.86.88-.42-.79-2.73-2.01-2.78-.6-.84-.98.16-.59,1.53.23,3.82-1.35,5.03s-2.08.05-2.23-1.71,1.18-7.01,1.42-2.46c.19,3.43-2.86,7.27-6.58,5.67-1.62-.7-2.52-2.23-2.31-3.99.15-1.2,1.56-4.1,1.85-1.64.21,1.76-1.67,4.61-3.38,5.01-1.8.42-3.21-1.3-3.8-3.04-.37-1.09-.5-6.1.28-2.73.62,2.7.4,4.06-2.38,3.32-1.9-.51-4.03-1.51-5.41-2.94-.19-.19-1.17-1.81-1.29-1.83l-1.15,1.5,1.16.75c1.47,2.01,2.57,1.91.9,4.1-1.14,1.49-2.41,2.6-3.09,4.16-.26.59-.75,1.95-.26,1.81l4.86,1.29-.34-.4,1.46,3.54c-.16-1.82,1.83-.3,1.89-.32l2.02-1.82c-.55-.21-1.08-.23-1.59-.07l1.29,4.86c.04-.26,3.99.05,4.61.3l-3.49-3.49.31,1.19.5-3.85c-.22.81-.7,1.3-1.44,1.48-1.18.33-.83.66,1.06.98l1.46,3.54v-.68c.13-6.44-9.87-6.44-9.99,0-.21,10.94,17.93,6.14,18.22-2.79.34-10.59-19.59-7.96-20.9.67-.25,1.64-.19,3.71,1.29,4.86,3.79,2.96,10.23,4.63,14.24.94,4.2-3.86,2.4-10.75-1.39-14.12-8.05-7.17-23.98,3.2-16.3,12.25,1.12,1.32,3.26,1.74,4.86,1.29,11.18-3.16,9.45-22.05-2.08-23.2-5.55-.55-9.75,4.8-8.77,10.08,1.06,5.71,7.18,8.59,12.51,7.56,13.21-2.55,12.14-17.81,2.01-23.54-4.72-2.67-11.35-1.76-13.43,3.8-1.93,5.15,1.45,10.53,5.37,13.61,4.21,3.3,10.7,5.97,16.13,4.62,6.31-1.57,7.91-8.71,7.04-14.36s-4.43-10.98-10.71-10.4c-5.71.53-9.48,5.68-9.79,11.18-.65,11.49,12.32,21.73,21.98,12.65,3.76-3.53,5.97-8.82,5.5-13.99-.55-6.11-5.76-10.74-12.01-9.22-11.52,2.8-12.92,19.59-3.31,25.44,10.97,6.67,24.2-4.02,22.16-16.05-.86-5.08-4.38-9.55-9.78-10.05-6.96-.65-10.49,5.82-11.29,11.81-.69,5.22.74,10.92,5.59,13.78s11.47.86,14.78-3.71c2.8-3.86,3.84-9.78,2.7-14.43-1.38-5.58-7.87-7.41-12.45-4.45-10.31,6.68-4.65,21.45,4.94,25.35,12.12,4.93,20.39-12.41,12.77-21.21-3.83-4.43-10.49-3.03-13.7,1.33-3.27,4.45-3.78,11.13-.59,15.74,7.82,11.32,26.79.94,20.97-12-2.38-5.29-9.09-9.73-14.23-4.99s-1.41,12.51,2.38,17.04,10.38,9.19,16.33,5.68,5.51-11.48-.55-14.2c-2.86-1.28-6.13-.98-9.1-1.96l-1.77-.62c-.99-.26-1.61-.87-1.86-1.84.67-1.68.08-1.77-1.79-.26.87.34,1.7.74,2.5,1.21,3,1.65,5.67,3.93,7.82,6.59,1.53,1.89,4.71,5.95,4.59,8.54l3.67-4.82c-4.47,1.7-10.91,1.29-15.7,1.81s-9.88.35-14.81.79c-9.93.88-19.92,6.31-30.06,4.5l3.49,6.15c1.31-7.31.32-14.33.13-21.67-.16-6.08.36-11.65-5.34-15.35-5.41-3.52-10.43,5.14-5.05,8.63h0Z"/>
  <path class="cls-8" d="m194.96,182.59c4.27.34,8.07-.55,12.23-1.38,3.8-.75,7.69-.61,11.5-1.37-1.88-2.45-3.76-4.9-5.65-7.34-1.33,2.59-2.66,5.19-4,7.78-2.94,5.71,5.69,10.78,8.63,5.05,1.33-2.59,2.66-5.19,4-7.78,2.06-4.01-1.32-8.21-5.65-7.34-3.25.65-6.61.49-9.89,1.06-3.86.67-7.2,1.65-11.18,1.34-6.42-.51-6.38,9.5,0,10h0Z"/>
  <path class="cls-8" d="m210.5,181.01c-.42,1.83-1.22,3.47-1.9,5.21-.31.8-.57,1.61-.74,2.45-.09.69-.19,1.37-.28,2.06-.1.89-.06.88.12,0l7.85-1.01c-.8-.99-1.2-2.6-1.7-3.76-.58-1.36-1.34-2.88-1.75-4.16v2.66l.06-.32-2.3,2.99.26-.17-2.52.68c.44-.05,1.91-.24,2.05-.21l-2.99-2.3.12.29-.5-3.85c.17-.25.21-.26.1-.02-.19.21-.38.4-.59.58.35-.95,3.28,1.77,2.35.14-3.2-5.58-11.84-.55-8.63,5.05,2.56,4.47,7.42,6.2,11.86,3.07,3.74-2.64,7.6-9.77,1.54-12.36-4.46-1.9-11.94.44-10.44,6.42.55,2.21,1.86,4.45,2.76,6.55s1.79,3.96,3.26,5.79c2,2.47,6.46,1.62,7.85-1.01,1.07-2.02.93-4.11,1.65-6.21s1.68-3.83,2.15-5.9c1.43-6.26-8.2-8.94-9.64-2.66h0Z"/>
  <path class="cls-8" d="m222.22,273.52c-6.47-.06-14.55.52-19.69,4.85-3.74,3.15-.25,8.04,3.54,8.54,4.59.6,8.75-1.1,12.88-2.88,2.48-1.06,3.05-4.72,1.79-6.84-1.51-2.56-4.34-2.87-6.84-1.79s-4.98,1.89-7.84,1.51l3.54,8.54c1.26-1.06,4.12-1.22,5.73-1.49,2.28-.38,4.58-.46,6.89-.44,6.44.06,6.44-9.94,0-10h0Z"/>
  <path class="cls-8" d="m147.38,265.81c5.29.69,10.39-.12,15.62-.91s10.8-.28,16.09-1.2c2.58-.45,4.93-1.61,7.49-2.12s5.41-.27,8.07-.54c5.22-.52,9.88-3.24,15.06-3.75l-4.32-2.48,1.21,1.65c1.89,2.58,5.37,3.45,7.85,1.01.87-.95,1.84-1.79,2.91-2.51l-7.34-2.99c.4,2.37.34,4.63,1.24,6.89,1.2,3.03,3.57,5.34,5.47,7.91s3.15,5.28,5.38,7.5,4.48,5.17,7.21,6.48l2.52-9.32c-4.28-.06-8.5.16-12.75.68l4.82,3.67c-1.08-3.26-1.73-7.76-3.38-10.64-3.28-5.74-14.19-3.7-17.35,1.19-4.22,6.54,3.97,14.55,10.71,13.04,6.67-1.49,8.73-11.18,6.62-16.9-2.29-6.2-13.44-9.52-19.05-6.45s-5.73,12.9-2.33,17.59c4.38,6.06,13.92,4.26,17.25-2.04s-4.97-12.58-10.01-15.11c-6.41-3.22-16.71,1.29-11.85,9.25,2.06,3.37,4.49,6.57,6.72,9.83,2.62-2.02,5.24-4.04,7.85-6.06-4.9-4.9-15.88-13.62-22.71-7.29-7.51,6.96,5.44,15.27,11.05,17.34,8.08,2.99,18.18-3.46,12.25-12.16-4.32-6.34-14.96-11.88-21.52-5.59-6.19,5.94-3.61,16.97.73,23.17,1.92,2.74,4.82,6.45,8.67,5.42,4.41-1.18,5.46-7.66,6.86-11.25,1.57-4.03,3.09-7.86-.22-11.44-2.91-3.16-7.87-4.77-11.84-6.11-7.31-2.46-21.07-7.12-27.7-.91-7.51,7.04,4.35,15.5,10.12,18.23,7.07,3.35,19.64,5.18,22.08-5.06,2.22-9.33-9-13.93-16.48-13.27s-16.4,8.5-12.02,16.8c4.06,7.68,15.73,10.69,23.53,8.19s13.17-12.09,5.88-18.67c-6.25-5.64-19.12-6.88-25.43-.86-7.42,7.06-3,16.87,4.49,21.65s21.26,4.91,21.71-6.76-14.71-11.49-22.07-7.94c-6.69,3.23-17.78,15.12-11.02,22.74s22.17-.69,28.39-5.61c2.47-1.95,1.63-6.51-1.01-7.85-10.87-5.54-26.5-2.25-34.26,7.11-2.89,3.49-.9,8.08,3.54,8.54,5.32.55,10.68-1.69,13.64-6.28,2.55-3.96,3.6-9.95.02-13.68-7.67-8.01-18.72,1.96-18.69,10.59.02,4.64,1.95,10.94,7.43,11.34,5.11.37,9.42-4.51,10.66-9.02,2.49-9.02-3.46-21.84-14.29-20.09-11.64,1.87-11.25,19.82,1.39,17.4,8.18-1.57,18.84-11.38,14.84-20.43-4.66-10.55-19.38-4.3-21.9,4.42-2.41,8.32,3.32,22.96,14.22,18.49,13-5.33,4.51-23.42-4.3-28.1-4.77-2.54-11.28-2.4-14.06,2.93-2.35,4.5-1.32,11.37,3.32,13.9,2.69,1.46,6.64.27,7.34-2.99,1.25-5.79-1.4-10.48-6.16-13.74-3.79-2.6-10.3-4.63-12.08,1.5-1.44,4.99,2.16,12.86,3.58,17.66.86,2.92,1.76,5.85,3.06,8.61.93,1.98,4.56,5.4,4.76,7.33.44,4.41,5.09,6.47,8.54,3.54,1.26-1.07,4.39-1.16,5.94-1.62,1.65-.49,3.26-1.1,4.88-1.68,3.55-1.28,7.05-2.49,10.79-3.1,7.78-1.27,14.33-5.45,22.11-6.77,6.33-1.07,3.65-10.71-2.66-9.64-4.51.76-8.58,2.23-12.74,4.09s-8.36,2.25-12.83,3.37c-4.18,1.05-8.1,2.86-12.22,4.09-3.84,1.14-7.22,1.53-10.35,4.2l8.54,3.54c-.58-5.79-4.78-8.72-6.73-14-.97-2.62-1.69-5.36-2.44-8.05-.48-1.73-.94-3.47-1.38-5.21-.22-.87-1.31-3.43-1.09-4.01l-3.49,3.49c-1.45.37,2.67,2.14,2.32,3.76l7.34-2.99c.51.72.69.67.52-.17-.03-.88,0-.89.06-.03.54.4,1.97,1.78,2.75,2.51,1.07,1.01,4.85,6.14,3.01,7.68-.63.53-1.31-4.94-.93-5.92.95-2.42,4.35-3.6,1.26-.06-.79.91-1.69,1.66-2.72,2.3-1.81,1.12-3.5.33-1.14,2.59s4.05,4.44,3.37,7.79c.02.59-.16,1.1-.55,1.55-1.04,1.25-.29,1.67,2.22,1.27-.24.16.48-4.06.47-4,.29-2.29.21-.12-.86.49-1.76,1.01-2.68,1.38-4.82,1.16l3.54,8.54c4.79-5.77,15.05-9.15,22.15-5.54l-1.01-7.85c-2.51,1.99-5.37,3.52-8.43,4.48-1.25.39-2.62.84-3.94.95-.71,1.31-.79,1.45-.26.42.33-.67.7-1.32,1.11-1.95,1.62-2.41,3.93-4.42,6.65-5.48,1.42-.55,3.01-.89,4.53-.84.61.02,2.62-.17,1.93.11-2.6,1.06-6.06-1.04-7.93-2.78-3.53-3.28-1.13-5.85,2.86-5.87,1.12,0,8.15,1.01,7.66,2.84-.71,2.64-7.67,1.26-9.16.69-2.14-.82-6.13-3.14-2.26-4.72,1.32-.54,2.85-.51,4.25-.26.5.09,4.97,1.08,1.36,1.12-2.67.03-5.88-1.64-8.08-3.01-1.4-.87-2.59-2.28-3.97-3.08l-1.1-1.13c-1.57,2.84-1.4,3.97.52,3.4,1.19.43,3.47-.02,4.88.19,1.79.27,3.58.66,5.34,1.08,2.85.68,5.69,1.48,8.45,2.49,1.29.47,2.54.99,3.76,1.63,3.05,1.6.73.93,1.25-.45-.67,1.79-1.39,3.56-2.08,5.34-.41,1.06-2.78,4.37-.38,2.98h5.05c-2.68-1.4-4.21-6.65-4.2-9.44s.98-2.99,3.49-1.78c1.52.73,3.31,4.19,3.86,1.74.88-1.22.5-1.75-1.12-1.59-1.01-.45-1.97-.98-2.89-1.59-.99-.62-1.94-1.31-2.84-2.06-1.25-1.75-1.89-1.33-1.92,1.26-1.4,1.79-1.12,2.77.86,2.94.97.47,1.9.98,2.82,1.55,1.94,1.21,3.6,2.66,5.21,4.27,3.9,3.91,11.14-1.25,7.85-6.06l-3.65-5.34c-.71-1.04-1.36-2.17-2.15-3.15-.9-1.12-.61-1.78-.73-.55l-1.46,3.54c-.27.31,5.47,4.19,5.59,4.9l.5-3.85c-1.09,2.46-1.37-1.34-.94-1.64-.79.56,3.24,1.55,3.36,1.56,1.29.92,1.63.99,1.01.2-.48-.9-.57-.55-.27,1.07.02,1.02-.11,2.01-.41,2.99.41-.83.87-1.11,1.4-.85l-1.46,3.54c.33-.37,2.8-1.06,2.03-1.7l-1.46-3.54c.45,3.73,1.87,7.21,3.05,10.77.62,1.89,2.61,3.94,4.82,3.67,4.25-.51,8.47-.74,12.75-.68,4.74.07,7.1-7.12,2.52-9.32-1.62-.78-3.88-3.57-5.18-4.91-1.72-1.78-2.7-4.06-4.22-6.01s-3.76-4.02-4.55-6.28c-.6-1.73-.45-3.83-.75-5.61-.52-3.03-4.87-4.75-7.34-2.99-1.76,1.26-3.39,2.55-4.94,4.07l7.85,1.01c-2.85-3.89-5.24-4.56-10.06-3.48-3.2.72-6.19,2.18-9.39,2.88s-6.35.35-9.5.75-5.96,1.84-9.06,2.38-6.21.04-9.25.3c-6.93.59-13.59,2.48-20.58,1.57-6.36-.83-6.3,9.18,0,10h0Z"/>
  <path class="cls-5" d="m44.99,120.29s-26.55,5.36-42.99-7.84"/>
  <path class="cls-5" d="m17.36,135.04s6.47,15.48,34.75,0"/>
  <path class="cls-2" d="m84.25,94.6s12.49-26.41,32.61,0"/>
  <path class="cls-2" d="m172.25,94.37s12.49-26.41,32.61,0"/>
  <path class="cls-1" d="m239.22,152.09s9.96,50.69,2.73,60.12"/>
  <path class="cls-8" d="m247.83,151.13l-1.41-.25v9.64c3.41-.68,6.81-1.36,10.22-2.05s6.03-1.88,7.68,1.74c1.25,2.74-.44,5.79-1.31,8.55-.95,3.02-1.9,6.04-2.85,9.06-1.71,5.42-2.02,11.84-5.76,16.07-1.4,1.59-2.26,3.22-3.78,4.33-2.42,1.76-4.26,3-5.78,5.72l9.32,2.52c.09-1.44.82-3.32.86-5.05.04-1.52.45-3.54.57-6.02.28-6.28.53-13.43-.97-19.56-1.34-5.5-9.85-4.29-9.82,1.33,0,1.72.02,3.43.02,5.15h10c-.32-3.94-.79-7.86-1.48-11.75-.34-1.88-.72-3.75-1.17-5.61-.22-.93-.45-1.86-.7-2.78-.52-2.28-.65-2.46-.38-.54l-2.3,2.99c.97-.42,11.92-2.78,11.85-3.19l.5-3.85-.46.91,2.99-2.3c-4.15,1.08-8.6-.18-12.38,2.33-2.97,1.98-4.45,5.67-4.32,9.2.15,3.95,2.94,6.11,6.7,6.05.52,0,7.09-.79,7.1-1.33.03-1.25-6.91-.68-7.53-.63-7.79.64-10.8,10.7-5.68,16.25,2.68,2.91,6.87,3.85,10.57,2.49,1.7-.62,3.17-1.7,4.34-3.07,1.02-1.2,1.68-4.54,2.83-5.33l-7.34-2.99c.35,1.8-3.72,6.7-5.14,7.33-3.82,1.71-2.9,8.41,1.19,9.14.71.07,1.38.25,2.04.53,6.1,2.1,8.72-7.56,2.66-9.64-.65-.28-1.33-.46-2.04-.53.4,3.05.8,6.09,1.19,9.14,6.02-2.7,10.99-12.28,9.74-18.63-.59-3.03-4.81-4.74-7.34-2.99-1.8,1.25-3,2.51-4.03,4.48-.48.92-.7,2-1.12,2.93-.62,1.38-2.19.74.26.87,4.4.23,9.28-1.03,11.99-4.72,2.46-3.35,2.82-8.49.13-11.84-1.46-1.82-3.38-2.66-5.71-2.75s-6.34,1.93-8.29,1.29l3.49,3.49c-.25-1.1,6.55-.76,8.12-1.11,3.02-.68,5.19-2.8,5.35-6.05.31-6.32-6.76-9.04-11.92-8.29-3.59.52-7.12,1.79-10.61,2.75-2.86.79-5.39,1.4-6.49,4.4s.63,6.59,1.3,9.56c1.03,4.54,1.69,9.13,2.07,13.77.51,6.32,10.03,6.53,10,0,0-1.72-.02-3.43-.02-5.15l-9.82,1.33c2.24,9.15-.25,18.95-.82,27.98-.31,5.01,6.97,6.72,9.32,2.52,1.05-1.88,2.38-1.88,4.01-3.02,1.46-1.03,2.04-2.38,3.05-3.76,2.35-3.19,5.26-5.43,6.29-9.46.91-3.58,1.37-7.14,2.48-10.69,1.37-4.38,2.77-8.75,4.13-13.13,2.22-7.13,1.49-13.85-4.53-18.96-3.08-2.62-6.47-2.72-10.28-2.06-4.97.87-9.92,1.99-14.86,2.98s-4.82,8.77,0,9.64l1.41.25c6.29,1.13,8.99-8.5,2.66-9.64h0Z"/>
  <path class="cls-8" d="m251.95,180.43c-1.59.19-3.08.49-4.41,1.45-1.51,1.09-2.81,2.49-3.32,4.34-.8,2.91.76,6.12,3.73,6.97,2.55.73,5.49-.61,6.59-3.03.57-1.26.88-2.47.5-3.85-.32-1.16-1.22-2.42-2.3-2.99-1.16-.61-2.57-.92-3.85-.5-1.17.38-2.46,1.13-2.99,2.3-.07.15-.14.28-.23.41l.78-1.01c-.06.08-.13.16-.21.22l1.01-.78-.12.08,1.19-.5-.12.05,1.33-.18h-.13c.44.07.89.13,1.33.19l-.14-.03,1.19.5-.1-.06,1.01.78-.08-.08.78,1.01-.05-.1.5,1.19-.03-.12.18,1.33c-.01-.09-.02-.17,0-.26l-.18,1.33c.02-.14.06-.26.11-.39l-.5,1.19c.1-.2.22-.37.35-.55l-.78,1.01c.19-.22.38-.42.61-.61l-1.01.78c.28-.21.57-.38.89-.52l-1.19.5c.27-.1.54-.18.83-.23l-1.33.18.17-.02c.69.03,1.33-.12,1.93-.43.62-.2,1.16-.55,1.61-1.03.87-.87,1.52-2.29,1.46-3.54s-.48-2.63-1.46-3.54c-.91-.84-2.25-1.62-3.54-1.46h0Z"/>
  <path class="cls-8" d="m260.71,168.91c6.43,0,6.45-10,0-10s-6.45,10,0,10h0Z"/>
  <path class="cls-8" d="m256.28,162.31c-.04.49-.08.98-.13,1.46.11-.98-.11.66-.15.85-.19,1.05-.44,2.08-.73,3.1l9.64,2.66c.49-2.17.81-4.38.99-6.6.22-2.61-2.46-5.11-5-5-2.9.13-4.77,2.2-5,5-.03.4-.08.8-.11,1.21-.06.87.21-1.14-.05.35-.14.8-.29,1.59-.47,2.38-.58,2.54.78,5.53,3.49,6.15s5.39-.8,6.15-3.49,1.17-5.34,1.37-8.07-2.44-5.11-5-5c-2.88.13-4.79,2.2-5,5h0Z"/>
  <path class="cls-8" d="m256.68,157.21c-2.01,4.72-3.84,9.49-5.42,14.38-1.98,6.14,7.68,8.77,9.64,2.66,1.3-4.05,2.74-8.07,4.41-11.99,1.06-2.48.74-5.36-1.79-6.84-2.1-1.23-5.78-.71-6.84,1.79h0Z"/>
  <path class="cls-8" d="m252.65,159.51c-1.02,3.56-2.03,7.12-2.85,10.74-.59,2.63.8,5.41,3.49,6.15,2.51.69,5.56-.85,6.15-3.49.81-3.62,1.82-7.18,2.85-10.74,1.78-6.2-7.86-8.84-9.64-2.66h0Z"/>
</svg>